0
SECTION
2
HEADER
9
$INSUNITS
70
5
9
$ACADVER
1
AC1014
9
$HANDSEED
5
FFFF
0
ENDSEC
0
SECTION
2
TABLES
0
TABLE
2
VPORT
5
8
100
AcDbSymbolTable
0
ENDTAB
0
TABLE
2
LTYPE
5
5
100
AcDbSymbolTable
0
LTYPE
5
14
100
AcDbSymbolTableRecord
100
AcDbLinetypeTableRecord
2
BYBLOCK
70
0
0
LTYPE
5
15
100
AcDbSymbolTableRecord
100
AcDbLinetypeTableRecord
2
BYLAYER
70
0
0
ENDTAB
0
TABLE
2
LAYER
5
2
100
AcDbSymbolTable
70
2
0
LAYER
5
50
100
AcDbSymbolTableRecord
100
AcDbLayerTableRecord
2
0
70
0
6
CONTINUOUS
0
ENDTAB
0
TABLE
2
STYLE
5
3
100
AcDbSymbolTable
70
1
0
STYLE
5
11
100
AcDbSymbolTableRecord
100
AcDbTextStyleTableRecord
2
STANDARD
70
0
0
ENDTAB
0
TABLE
2
VIEW
5
6
100
AcDbSymbolTable
70
0
0
ENDTAB
0
TABLE
2
UCS
5
7
100
AcDbSymbolTable
70
0
0
ENDTAB
0
TABLE
2
APPID
5
9
100
AcDbSymbolTable
70
2
0
APPID
5
12
100
AcDbSymbolTableRecord
100
AcDbRegAppTableRecord
2
ACAD
70
0
0
ENDTAB
0
TABLE
2
DIMSTYLE
5
A
100
AcDbSymbolTable
70
1
0
ENDTAB
0
TABLE
2
BLOCK_RECORD
5
1
100
AcDbSymbolTable
70
1
0
BLOCK_RECORD
5
1F
100
AcDbSymbolTableRecord
100
AcDbBlockTableRecord
2
*MODEL_SPACE
0
BLOCK_RECORD
5
1B
100
AcDbSymbolTableRecord
100
AcDbBlockTableRecord
2
*PAPER_SPACE
0
ENDTAB
0
ENDSEC
0
SECTION
2
BLOCKS
0
BLOCK
5
20
100
AcDbEntity
100
AcDbBlockBegin
2
*MODEL_SPACE
0
ENDBLK
5
21
100
AcDbEntity
100
AcDbBlockEnd
0
BLOCK
5
1C
100
AcDbEntity
100
AcDbBlockBegin
2
*PAPER_SPACE
0
ENDBLK
5
1D
100
AcDbEntity
100
AcDbBlockEnd
0
ENDSEC
0
SECTION
2
ENTITIES
0
LWPOLYLINE
5
100
100
AcDbEntity
8
0
100
AcDbPolyline
90
4
70
1
43
0.0
10
15.85786437626904
20
0
10
-14.142135623730949
20
0
10
-14.142135623730947
20
18
10
15.857864376269042
20
18
0
LINE
5
101
100
AcDbEntity
8
0
100
AcDbLine
10
-14.142135623730947
20
9
30
6.3837823915946501e-16
11
15.857864376269042
21
9
31
6.3837823915946501e-16
0
LINE
5
102
100
AcDbEntity
8
0
100
AcDbLine
10
0.85786437626904721
20
18
30
-5.2041704279304213e-16
11
0.85786437626904544
21
0
31
1.2559397966072083e-15
0
LINE
5
103
100
AcDbEntity
8
0
100
AcDbLine
10
-6.6421356237309492
20
18
30
0
11
-6.6421356237309483
21
0
31
9.4113884431265539e-16
0
LINE
5
104
100
AcDbEntity
8
0
100
AcDbLine
10
-10.392135623730947
20
18
30
0
11
-10.392135623730942
21
0
31
7.8883804384672083e-16
0
LINE
5
105
100
AcDbEntity
8
0
100
AcDbLine
10
-10.392135623730947
20
18
30
0
11
-14.142135623730947
21
9
31
6.3837823915946501e-16
0
LINE
5
106
100
AcDbEntity
8
0
100
AcDbLine
10
-10.392135623730942
20
0
30
7.8883804384672083e-16
11
-14.142135623730947
21
9
31
6.3837823915946501e-16
0
LINE
5
107
100
AcDbEntity
8
0
100
AcDbLine
10
-8.5171356237309475
20
18
30
0
11
-8.5171356237309439
21
-1.2187932852964045e-15
31
8.7086966278096716e-16
0
LINE
5
108
100
AcDbEntity
8
0
100
AcDbLine
10
-14.142135623730947
20
15.750000000000002
30
0
11
0.85786437626904699
21
15.750000000000002
31
0
0
LINE
5
109
100
AcDbEntity
8
0
100
AcDbLine
10
-6.7421356237309489
20
18
30
0
11
-6.7421356237309489
21
15.750000000000002
31
0
0
LINE
5
110
100
AcDbEntity
8
0
100
AcDbLine
10
-6.5421356237309496
20
18
30
0
11
-6.5421356237309496
21
15.750000000000002
31
0
0
LINE
5
111
100
AcDbEntity
8
0
100
AcDbLine
10
-6.7421356237309489
20
15.750000000000002
30
0
11
-6.5421356237309496
21
15.750000000000002
31
0
0
LINE
5
112
100
AcDbEntity
8
0
100
AcDbLine
10
-6.5421356237309496
20
0
30
0
11
-6.5421356237309496
21
2.2499999999999982
31
0
0
LINE
5
113
100
AcDbEntity
8
0
100
AcDbLine
10
-6.7421356237309489
20
2.2499999999999982
30
0
11
-6.5421356237309496
21
2.2499999999999982
31
0
0
LINE
5
114
100
AcDbEntity
8
0
100
AcDbLine
10
-6.7421356237309489
20
0
30
0
11
-6.7421356237309489
21
2.2499999999999982
31
0
0
LINE
5
115
100
AcDbEntity
8
0
100
AcDbLine
10
-10.392135623730947
20
18
30
0
11
0.85786437626904721
21
18
31
-5.2041704279304213e-16
0
LINE
5
116
100
AcDbEntity
8
0
100
AcDbLine
10
-10.392135623730942
20
0
30
7.8883804384672083e-16
11
0.85786437626904544
21
0
31
1.2559397966072083e-15
0
LINE
5
117
100
AcDbEntity
8
0
100
AcDbLine
10
-14.142135623730947
20
13.5
30
6.3837823915946501e-16
11
0.85786437626904677
21
13.5
31
6.3837823915946501e-16
0
LINE
5
118
100
AcDbEntity
8
0
100
AcDbLine
10
0.75786437626904724
20
18
30
-1.6792123247455493e-15
11
0.75786437626904724
21
10.99749843554382
31
-1.2490009027033011e-15
0
LINE
5
119
100
AcDbEntity
8
0
100
AcDbLine
10
0.75786437626904724
20
9
30
-1.6792123247455493e-15
11
0.85786437626904621
21
9.0000000000000018
31
-1.2490009027033011e-15
0
LINE
5
120
100
AcDbEntity
8
0
100
AcDbLine
10
12.107864376269042
20
17.999999999999996
30
0
11
15.857864376269038
21
8.9999999999999964
31
6.3837823915946501e-16
0
LINE
5
121
100
AcDbEntity
8
0
100
AcDbLine
10
12.107864376269033
20
-3.5527136788005009e-15
30
7.8883804384672083e-16
11
15.857864376269038
21
8.9999999999999964
31
6.3837823915946501e-16
0
LINE
5
122
100
AcDbEntity
8
0
100
AcDbLine
10
0.95786437626904719
20
18
30
-1.6792123247455493e-15
11
0.95786437626904575
21
10.99749843554382
31
-1.2490009027033011e-15
0
LINE
5
123
100
AcDbEntity
8
0
100
AcDbLine
10
0.95786437626904541
20
9
30
-1.6792123247455493e-15
11
0.85786437626904644
21
9.0000000000000018
31
-1.2490009027033011e-15
0
LINE
5
124
100
AcDbEntity
8
0
100
AcDbLine
10
8.4578643762690433
20
18
30
0
11
8.4578643762690433
21
15.75
31
0
0
LINE
5
125
100
AcDbEntity
8
0
100
AcDbLine
10
8.257864376269044
20
18
30
0
11
8.257864376269044
21
15.75
31
0
0
LINE
5
126
100
AcDbEntity
8
0
100
AcDbLine
10
8.4578643762690433
20
15.75
30
0
11
8.257864376269044
21
15.75
31
0
0
LINE
5
127
100
AcDbEntity
8
0
100
AcDbLine
10
8.2578643762690405
20
0
30
0
11
8.2578643762690405
21
2.2499999999999964
31
0
0
LINE
5
128
100
AcDbEntity
8
0
100
AcDbLine
10
8.4578643762690398
20
0
30
0
11
8.4578643762690398
21
2.2499999999999964
31
0
0
LINE
5
129
100
AcDbEntity
8
0
100
AcDbLine
10
8.4578643762690398
20
2.2499999999999964
30
0
11
8.2578643762690405
21
2.2499999999999964
31
0
0
ARC
5
130
100
AcDbEntity
8
0
100
AcDbCircle
10
0.85786437626904644
20
9.0000000000000018
30
-1.2490009027033011e-15
40
2
100
AcDbArc
50
-267.13401601740117
51
87.134016017401152
0
ENDSEC
0
SECTION
2
OBJECTS
0
DICTIONARY
5
C
100
AcDbDictionary
3
ACAD_GROUP
350
D
3
ACAD_MLINESTYLE
350
17
0
DICTIONARY
5
D
100
AcDbDictionary
0
DICTIONARY
5
1A
330
C
100
AcDbDictionary
0
DICTIONARY
5
17
100
AcDbDictionary
0
ENDSEC
0
EOF
