<svg xmlns="http://www.w3.org/2000/svg" viewBox="0 0 283.46 283.46"><defs><style>.cls-1{fill:#202020;}</style></defs><title>LogoCorpVariantLosslessSVG</title><g id="TopAccent"><path class="cls-1" d="M270.94,92.74l-1.52,4H75.72a33.71,33.71,0,0,0-31,21.58l-28.1,73.42H12.44l27.91-73.16a39.14,39.14,0,0,1,36.9-25.84Z"/><path class="cls-1" d="M269.35,96.59,244.66,161.1c-8.8,23-31.81,30.11-51.78,30.64H16.7l3-9H195.91c16.29-.11,37.12-6.82,43.91-21.64Z"/><path class="cls-1" d="M163.34,190.44c20,0,43-6.34,51.78-29.34L239.8,96.59,210.27,161.1c-6.78,14.82-27.61,21.53-43.91,21.53"/><path class="cls-1" d="M36.49,139.7l17.78,43H65.55l-18-43,50.71-43H87.11Zm1.61-1.31.14-.11.4-.34c-.12.12-.28.24-.4.34Z"/><polygon class="cls-1" points="109.34 96.74 98.24 96.74 133.79 182.74 144.89 182.74 109.34 96.74"/><path class="cls-1" d="M249.66,139.72a156.67,156.67,0,0,0-104.76,43H148a147.26,147.26,0,0,1,27.62-18,152,152,0,0,1,69.79-15.71"/><path class="cls-1" d="M249.66,139.61l1-2.21a39.63,39.63,0,0,0-2-18.14c-5.24-14.55-18.27-21.76-21.42-23.32-5.82,1.22-11,3.1-16.79,4.33,1.75.23,29.68,4.42,37.38,25.52A32.66,32.66,0,0,1,249.66,139.61Z"/><path class="cls-1" d="M227.28,96.05A361.93,361.93,0,0,0,67.43,182.74H65.54A403.31,403.31,0,0,1,96,155.49a389.36,389.36,0,0,1,64.86-42.67,368.21,368.21,0,0,1,35.62-16.11Z"/><path class="cls-1" d="M236,177.21a27.9,27.9,0,0,1-2.61,2.46l-3.27,7.83a2.77,2.77,0,0,1-2.56,1.71H217.38a85.91,85.91,0,0,1-11.42,3h26.19l7.65-19.69C239,173.44,236.84,176.36,236,177.21Z"/><path class="cls-1" d="M49.13,102.4l2-5.46a2.11,2.11,0,0,1,2-1.37h6A28.78,28.78,0,0,1,67,92.75H49.85l-5.69,15.62A27.21,27.21,0,0,1,49.13,102.4Z"/></g></svg>